# xmcd CD database file
# Copyright (C) 1997 Ti Kan
# 
# Track frame offsets:
#     150
#     14475
#     28395
#     41485
#     54947
#     68675
#     84220
#     97962
#     112052
#     126512
#     140705
#     154680
#     167645
#     181807
#     195710
#     209477
#     223120
#     236710
#     248307
#     261720
# 
# Disc length: 3663 seconds
# 
# Revision: 1
# Processed by: cddbd v1.4b41PL1 Copyright (c) Steve Scherf et al.
# Submitted via: DiscPlay 4.0.3
# 
DISCID=230e4d14
DTITLE=Charley Patton - Complete Recorded Works Vol. 1 (1929)
DYEAR=1900
DGENRE=
TTITLE0=Mississippi Boweavil Blues
TTITLE1=Screamin' And Hollerin' The Blues
TTITLE2=Down The Dirt Road Blues
TTITLE3=Pony Blues
TTITLE4=Banty Rooster Blues
TTITLE5=It Won't Be Long
TTITLE6=Pea Vine Blues
TTITLE7=Tom Rushen Blues
TTITLE8=A Spoonful Blues
TTITLE9=Shake It And Break It (But Don't Let It Fall Mama)
TTITLE10=Prayer Of Death - Part 1
TTITLE11=Prayer Of Death - Part 2
TTITLE12=Lord I'm Discouraged
TTITLE13=I'm Goin' Home
TTITLE14=Going To Move To Alabama
TTITLE15=Elder Greene Blues (take 1)
TTITLE16=Elder Greene Blues (take 2)
TTITLE17=Circle Round The Moon
TTITLE18=Devil Sent The Rain Blues
TTITLE19=Mean Black Cat Blues
EXTD=
EXTT0=
EXTT1=
EXTT2=
EXTT3=
EXTT4=
EXTT5=
EXTT6=
EXTT7=
EXTT8=
EXTT9=
EXTT10=
EXTT11=
EXTT12=
EXTT13=
EXTT14=
EXTT15=
EXTT16=
EXTT17=
EXTT18=
EXTT19=
PLAYORDER=
